<svg width="401" height="69" viewBox="0 0 401 69" fill="none" xmlns="http://www.w3.org/2000/svg">
<path fill-rule="evenodd" clip-rule="evenodd" d="M0.444336 67.7555L9.57372 8.43487C10.4164 3.04208 12.9446 0.276553 17.2986 0.276553C20.9503 0.276553 23.6189 2.48898 25.0234 6.91383L41.1754 54.3427L57.1869 7.0521C58.5915 2.62725 61.2601 0.41483 64.9118 0.41483C69.2658 0.41483 71.794 3.18036 72.4962 8.57315L81.9065 67.7555H72.6367L64.35 12.8597L47.7767 61.8096C46.2317 66.3727 43.9845 68.5852 41.1754 68.5852C39.49 68.5852 38.2259 68.0321 37.2428 66.9259C36.2596 65.8196 35.2764 64.1603 34.4337 61.8096L17.8604 12.8597L9.71417 67.7555H0.444336ZM130.643 67.7555V43.6954H99.7439V67.7555H90.0527V25.996C90.0527 17.976 92.2999 11.6152 96.9349 7.0521C101.57 2.3507 107.609 0.138277 115.053 0.138277C119.969 0.138277 124.323 1.10621 128.115 3.18036C131.907 5.25451 134.857 8.29659 136.964 12.1683C139.07 16.0401 140.194 20.7415 140.194 25.996V67.7555H130.643ZM115.194 8.29659C110.278 8.29659 106.345 9.81764 103.677 12.8597C101.008 15.9018 99.7439 20.3267 99.7439 26.2725V35.2605H130.643V26.2725C130.643 20.3267 129.239 15.9018 126.57 12.8597C123.902 9.81764 120.109 8.29659 115.194 8.29659ZM152.133 67.7555V27.517C152.133 23.6453 152.413 20.4649 152.835 17.8377C153.256 15.2104 154.239 12.8597 155.644 10.6473C157.048 8.43487 158.874 6.499 160.981 4.83968C163.088 3.18036 165.335 2.07415 168.004 1.10621C170.391 0.41483 173.2 0 176.15 0C180.504 0 184.436 0.967936 188.088 2.90381C191.74 4.83968 194.689 7.46693 196.796 10.7856C198.903 14.1042 200.027 17.6994 200.027 21.5711C200.027 25.1663 199.184 28.6232 197.358 31.8036C195.532 35.1222 193.144 37.7495 190.055 39.6854C186.965 41.6212 183.594 42.7275 180.082 42.7275C174.605 42.7275 170.251 41.7595 167.161 39.6854V30.8357C167.161 30.8357 169.408 32.3567 170.672 32.9098C172.779 33.8778 175.026 34.2926 177.273 34.2926C179.661 34.2926 181.768 33.7395 183.734 32.495C185.701 31.3888 187.245 29.7295 188.369 27.7936C189.493 25.7194 190.055 23.6453 190.055 21.2946C190.055 18.9439 189.493 16.7315 188.229 14.6573C186.965 12.7214 185.279 11.0621 183.032 9.95591C180.925 8.8497 178.537 8.29659 175.869 8.29659C171.515 8.29659 168.144 9.67936 165.616 12.3066C163.088 14.9339 161.683 18.6673 161.683 23.3687V67.7555H152.133ZM217.864 1.24449V42.5892C217.864 48.3968 219.269 52.9599 221.937 56.002C224.606 59.0441 228.398 60.5651 233.454 60.5651C236.544 60.5651 239.353 59.8737 241.6 58.491C243.988 57.1082 245.814 55.3106 246.938 53.2365C248.202 51.1623 248.763 48.9499 248.763 46.7375V1.24449H258.455V67.7555H248.763V62.3627C247.64 64.4369 245.533 65.9579 242.443 67.2024C239.353 68.4469 236.263 69 233.314 69C228.398 69 224.044 68.0321 220.252 65.9579C216.46 63.8838 213.51 60.8417 211.403 56.9699C209.296 53.0982 208.173 48.3968 208.173 43.1423V1.24449H217.864ZM315.759 67.7555H306.068V23.3687C306.068 18.6673 304.804 14.9339 302.135 12.3066C299.607 9.67936 296.096 8.29659 291.882 8.29659C289.354 8.29659 286.966 8.8497 284.719 9.95591C282.612 11.0621 280.787 12.7214 279.522 14.6573C278.258 16.7315 277.697 18.8056 277.697 21.2946C277.697 25.3046 278.961 28.485 281.489 30.9739C284.017 33.3246 287.669 34.5691 292.304 34.5691C293.849 34.5691 295.674 34.016 297.781 33.1864C299.045 32.6333 301.152 31.1122 301.152 31.1122V40.1002L276.713 67.7555L269.129 62.3627L286.405 42.1743C282.753 41.6212 279.522 40.3768 276.713 38.4409C273.904 36.505 271.798 34.016 270.253 30.9739C268.708 27.9319 268.005 24.8898 268.005 21.5711C268.005 17.6994 268.989 14.1042 271.236 10.7856C273.343 7.46693 276.292 4.83968 279.944 2.90381C283.596 0.967936 287.528 0 291.882 0C294.832 0 297.641 0.41483 300.169 1.24449C302.697 2.07415 305.085 3.31864 307.191 4.97796C309.298 6.63727 310.984 8.57315 312.529 10.7856C313.933 12.998 314.916 15.3487 315.338 17.976C315.759 20.6032 316.04 23.7836 316.04 27.6553L315.759 67.7555Z" fill="#E43927"/>
<path d="M366.462 67.7546C385.311 67.7546 400.592 52.7109 400.592 34.1535C400.592 15.596 385.311 0.552246 366.462 0.552246C347.612 0.552246 332.332 15.596 332.332 34.1535C332.332 52.7109 347.612 67.7546 366.462 67.7546Z" fill="#E43927"/>
<path d="M356.209 26.2718H354.805C353.4 26.2718 352.698 26.9632 352.698 28.346V30.4201H356.209C357.614 30.4201 358.316 31.1115 358.316 32.4943C358.316 33.877 357.614 34.5684 356.069 34.5684H352.557V43.6947C352.557 45.0774 351.855 45.7688 350.451 45.7688C349.046 45.7688 348.344 45.0774 348.344 43.6947V28.4843C348.344 24.1977 350.451 22.1235 354.664 22.1235H356.069C357.473 22.1235 358.175 22.8149 358.175 24.1977C358.316 25.4422 357.614 26.2718 356.209 26.2718Z" fill="white"/>
<path d="M379.524 27.6553C383.738 27.6553 385.845 29.7294 385.845 34.016V43.6954C385.845 45.0781 385.142 45.7695 383.738 45.7695C382.333 45.7695 381.631 45.0781 381.631 43.6954V34.016C381.631 32.6332 380.929 31.8036 379.524 31.8036H376.013V43.6954C376.013 45.0781 375.311 45.7695 373.906 45.7695C372.502 45.7695 371.799 45.0781 371.799 43.6954V34.016C371.799 32.6332 371.097 31.8036 369.693 31.8036H366.181V43.5571C366.181 44.9398 365.479 45.6312 364.075 45.6312C362.67 45.6312 361.968 44.9398 361.968 43.5571V29.7294C361.968 28.3467 362.67 27.6553 364.075 27.6553H379.524Z" fill="white"/>
</svg>
